<?xml version="1.0" standalone="no"?>
<svg xmlns="http://www.w3.org/2000/svg" xmlns:xlink="http://www.w3.org/1999/xlink" width="317pt" height="216pt" viewBox="0.00 0.00 316.76 215.8">
<g id="graph0" class="graph" transform="translate(4.9097409967281465,214.07435850644072) scale(1)" data-name="DistributedSystemArchitecture">

<polygon fill="white" stroke="none" points="-4,4 -4,-211.8 312.76,-211.8 312.76,4 -4,4"/>

<!-- node1&#45;&gt;node2 -->
<!-- node1&#45;&gt;node2 -->
<g id="edge5" class="edge" data-name="node1-&gt;node2">

<path fill="none" stroke="#2e86c1" stroke-width="1.6" d="M54.19,-159.6C54.64,-153.05 54.65,-146.08 54.23,-139.51"/>
<polygon fill="#2e86c1" stroke="#2e86c1" stroke-width="1.6" points="50.75,-158.91 53.04,-169.25 57.7,-159.74 50.75,-158.91"/>
<polygon fill="#2e86c1" stroke="#2e86c1" stroke-width="1.6" points="57.7,-139.12 53.07,-129.59 50.75,-139.92 57.7,-139.12"/>
</g>
<!-- node1&#45;&gt;node3 -->
<!-- node1&#45;&gt;node3 -->
<g id="edge6" class="edge" data-name="node1-&gt;node3">

<path fill="none" stroke="#2e86c1" stroke-width="1.6" d="M82.58,-202.1C93.72,-203.7 104.87,-203.7 116.01,-202.1"/>
<polygon fill="#2e86c1" stroke="#2e86c1" stroke-width="1.6" points="83.28,-198.67 72.79,-200.18 81.93,-205.54 83.28,-198.67"/>
<polygon fill="#2e86c1" stroke="#2e86c1" stroke-width="1.6" points="116.59,-205.55 125.73,-200.19 115.24,-198.68 116.59,-205.55"/>
</g>
<!-- node1&#45;&gt;node4 -->
<g id="edge7" class="edge" data-name="node1-&gt;node4">

<path fill="none" stroke="#2e86c1" stroke-width="1.6" d="M77.55,-164.63C91.25,-154.97 107,-143.86 120.73,-134.17"/>
<polygon fill="#2e86c1" stroke="#2e86c1" stroke-width="1.6" points="76,-161.44 69.85,-170.07 80.03,-167.16 76,-161.44"/>
<polygon fill="#2e86c1" stroke="#2e86c1" stroke-width="1.6" points="122.63,-137.12 128.79,-128.49 118.6,-131.4 122.63,-137.12"/>
</g>
<!-- node2&#45;&gt;node3 -->
<g id="edge8" class="edge" data-name="node2-&gt;node3">

<path fill="none" stroke="#2e86c1" stroke-width="1.6" d="M77.84,-134.17C91.57,-143.86 107.32,-154.97 121.02,-164.63"/>
<polygon fill="#2e86c1" stroke="#2e86c1" stroke-width="1.6" points="79.98,-131.4 69.79,-128.49 75.94,-137.12 79.98,-131.4"/>
<polygon fill="#2e86c1" stroke="#2e86c1" stroke-width="1.6" points="118.54,-167.16 128.73,-170.07 122.58,-161.44 118.54,-167.16"/>
</g>
<!-- node2&#45;&gt;node4 -->
<!-- node2&#45;&gt;node4 -->
<g id="edge9" class="edge" data-name="node2-&gt;node4">

<path fill="none" stroke="#2e86c1" stroke-width="1.6" d="M82.58,-121.1C93.72,-122.7 104.87,-122.7 116.01,-121.1"/>
<polygon fill="#2e86c1" stroke="#2e86c1" stroke-width="1.6" points="83.28,-117.67 72.79,-119.18 81.93,-124.54 83.28,-117.67"/>
<polygon fill="#2e86c1" stroke="#2e86c1" stroke-width="1.6" points="116.59,-124.55 125.73,-119.19 115.24,-117.68 116.59,-124.55"/>
</g>
<!-- node3&#45;&gt;node4 -->
<!-- node3&#45;&gt;node4 -->
<g id="edge10" class="edge" data-name="node3-&gt;node4">

<path fill="none" stroke="#2e86c1" stroke-width="1.6" d="M166.19,-159.6C166.64,-153.05 166.65,-146.08 166.23,-139.51"/>
<polygon fill="#2e86c1" stroke="#2e86c1" stroke-width="1.6" points="162.75,-158.91 165.04,-169.25 169.7,-159.74 162.75,-158.91"/>
<polygon fill="#2e86c1" stroke="#2e86c1" stroke-width="1.6" points="169.7,-139.12 165.07,-129.59 162.75,-139.92 169.7,-139.12"/>
</g>
<!-- client&#45;&gt;node2 -->
<g id="edge11" class="edge" data-name="client-&gt;node2">

<path fill="none" stroke="#5d6d7e" stroke-width="1.4" stroke-dasharray="5,2" d="M43.29,-36.37C43.29,-48.39 43.29,-64.68 43.29,-78.67"/>
<polygon fill="#5d6d7e" stroke="#5d6d7e" stroke-width="1.4" points="39.79,-78.56 43.29,-88.56 46.79,-78.56 39.79,-78.56"/>
<text text-anchor="middle" x="54.54" y="-60.7" font-family="Times,serif" font-size="9" fill="#5d6d7e">HTTP</text>
</g>
<!-- client&#45;&gt;legend -->
<!-- node1 -->
<g id="node1" class="node" pointer-events="visible" data-name="node1">

<path fill="none" stroke="#2e4053" d="M58.29,-207.8C58.29,-207.8 28.29,-207.8 28.29,-207.8 22.29,-207.8 16.29,-201.8 16.29,-195.8 16.29,-195.8 16.29,-183.8 16.29,-183.8 16.29,-177.8 22.29,-171.8 28.29,-171.8 28.29,-171.8 58.29,-171.8 58.29,-171.8 64.29,-171.8 70.29,-177.8 70.29,-183.8 70.29,-183.8 70.29,-195.8 70.29,-195.8 70.29,-201.8 64.29,-207.8 58.29,-207.8" stroke-width="1.2"/>
<text text-anchor="middle" x="43.29" y="-186.8" font-family="Helvetica,sans-Serif" font-size="10.00">Node-1</text>
</g>
<!-- node2 -->
<g id="node2" class="node" pointer-events="visible" data-name="node2">

<path fill="none" stroke="#2e4053" d="M58.29,-126.8C58.29,-126.8 28.29,-126.8 28.29,-126.8 22.29,-126.8 16.29,-120.8 16.29,-114.8 16.29,-114.8 16.29,-102.8 16.29,-102.8 16.29,-96.8 22.29,-90.8 28.29,-90.8 28.29,-90.8 58.29,-90.8 58.29,-90.8 64.29,-90.8 70.29,-96.8 70.29,-102.8 70.29,-102.8 70.29,-114.8 70.29,-114.8 70.29,-120.8 64.29,-126.8 58.29,-126.8" stroke-width="1.2"/>
<text text-anchor="middle" x="43.29" y="-105.8" font-family="Helvetica,sans-Serif" font-size="10.00">Node-2</text>
</g>
<!-- node3 -->
<g id="node3" class="node" pointer-events="visible" data-name="node3">

<path fill="none" stroke="#2e4053" d="M170.29,-207.8C170.29,-207.8 140.29,-207.8 140.29,-207.8 134.29,-207.8 128.29,-201.8 128.29,-195.8 128.29,-195.8 128.29,-183.8 128.29,-183.8 128.29,-177.8 134.29,-171.8 140.29,-171.8 140.29,-171.8 170.29,-171.8 170.29,-171.8 176.29,-171.8 182.29,-177.8 182.29,-183.8 182.29,-183.8 182.29,-195.8 182.29,-195.8 182.29,-201.8 176.29,-207.8 170.29,-207.8" stroke-width="1.2"/>
<text text-anchor="middle" x="155.29" y="-186.8" font-family="Helvetica,sans-Serif" font-size="10.00">Node-3</text>
</g>
<!-- node4 -->
<g id="node4" class="node" pointer-events="visible" data-name="node4">

<path fill="none" stroke="#2e4053" d="M170.29,-126.8C170.29,-126.8 140.29,-126.8 140.29,-126.8 134.29,-126.8 128.29,-120.8 128.29,-114.8 128.29,-114.8 128.29,-102.8 128.29,-102.8 128.29,-96.8 134.29,-90.8 140.29,-90.8 140.29,-90.8 170.29,-90.8 170.29,-90.8 176.29,-90.8 182.29,-96.8 182.29,-102.8 182.29,-102.8 182.29,-114.8 182.29,-114.8 182.29,-120.8 176.29,-126.8 170.29,-126.8" stroke-width="1.2"/>
<text text-anchor="middle" x="155.29" y="-105.8" font-family="Helvetica,sans-Serif" font-size="10.00">Node-4</text>
</g>
<!-- client -->
<g id="node5" class="node" pointer-events="visible" data-name="client">

<path fill="none" stroke="#5d6d7e" stroke-dasharray="5,2" d="M74.37,-36C74.37,-36 12.21,-36 12.21,-36 6.21,-36 0.21,-30 0.21,-24 0.21,-24 0.21,-12 0.21,-12 0.21,-6 6.21,0 12.21,0 12.21,0 74.37,0 74.37,0 80.37,0 86.37,-6 86.37,-12 86.37,-12 86.37,-24 86.37,-24 86.37,-30 80.37,-36 74.37,-36" stroke-width="1.2"/>
<text text-anchor="middle" x="43.29" y="-15" font-family="Helvetica,sans-Serif" font-size="10.00">Client / Browser</text>
</g>
<!-- legend -->
<g id="node6" class="node" pointer-events="visible" data-name="legend">

<polygon fill="none" stroke="#bfc9ca" stroke-width="1.2" points="302.73,-36 143.84,-36 143.84,0 308.73,0 308.73,-30 302.73,-36"/>
<polyline fill="none" stroke="#bfc9ca" points="302.73,-36 302.73,-30" stroke-width="1.2"/>
<polyline fill="none" stroke="#bfc9ca" points="308.73,-30 302.73,-30" stroke-width="1.2"/>
<text text-anchor="middle" x="226.29" y="-21" font-family="Helvetica,sans-Serif" font-size="10.00" fill="#2e4053">Blue: TCP P2P (bidirectional)</text>
<text text-anchor="middle" x="226.29" y="-9" font-family="Helvetica,sans-Serif" font-size="10.00" fill="#2e4053">Gray dashed: client HTTP access</text>
</g></g>
</svg>